HIERARCHY
ROOT Hips
{
  OFFSET 0 0 0
  CHANNELS 6 Xposition Yposition Zposition Zrotation Xrotation Yrotation
  JOINT Spine
  {
    OFFSET 0.00000000 0.00000000 0.00000000
    CHANNELS 3 Zrotation Xrotation Yrotation
    JOINT Spine1
    {
      OFFSET 0.19000000 0.00000000 0.00000000
      CHANNELS 3 Zrotation Xrotation Yrotation
      JOINT Neck
      {
        OFFSET 0.22500000 0.00600000 0.00000000
        CHANNELS 3 Zrotation Xrotation Yrotation
        JOINT Head
        {
          OFFSET 0.14000000 0.00030878 0.00000000
          CHANNELS 3 Zrotation Xrotation Yrotation
          End Site
          {
            OFFSET 0.17000000 0.00000000 0.00000000
          }
        }
      }
      JOINT LeftShoulder
      {
        OFFSET 0.19800000 0.03700000 0.04300000
        CHANNELS 3 Zrotation Xrotation Yrotation
        JOINT LeftArm
        {
          OFFSET 0.08000000 0.00000000 0.00000000
          CHANNELS 3 Zrotation Xrotation Yrotation
          JOINT LeftForeArm
          {
            OFFSET 0.15200000 0.00000000 0.00000000
            CHANNELS 3 Zrotation Xrotation Yrotation
            JOINT LeftHand
            {
              OFFSET 0.17800000 0.00000000 0.00000000
              CHANNELS 3 Zrotation Xrotation Yrotation
              End Site
              {
                OFFSET 0.07200000 0.00000000 0.00000000
              }
            }
          }
        }
      }
      JOINT RightShoulder
      {
        OFFSET 0.19800000 0.03700000 -0.04300000
        CHANNELS 3 Zrotation Xrotation Yrotation
        JOINT RightArm
        {
          OFFSET 0.08000000 0.00000000 0.00151654
          CHANNELS 3 Zrotation Xrotation Yrotation
          JOINT RightForeArm
          {
            OFFSET 0.15200000 0.00000000 0.00000000
            CHANNELS 3 Zrotation Xrotation Yrotation
            JOINT RightHand
            {
              OFFSET 0.17800000 0.00000000 0.00000000
              CHANNELS 3 Zrotation Xrotation Yrotation
              End Site
              {
                OFFSET 0.07200000 0.00000000 0.00000000
              }
            }
          }
        }
      }
    }
  }
  JOINT LeftUpLeg
  {
    OFFSET 0.05984250 -0.07666000 0.04788790
    CHANNELS 3 Zrotation Xrotation Yrotation
    JOINT LeftLeg
    {
      OFFSET 0.16000000 0.00000000 0.00000000
      CHANNELS 3 Zrotation Xrotation Yrotation
      JOINT LeftFoot
      {
        OFFSET 0.18000000 0.00000000 0.00000000
        CHANNELS 3 Zrotation Xrotation Yrotation
        End Site
        {
          OFFSET 0.00000000 -0.10800000 0.00000000
        }
      }
    }
  }
  JOINT RightUpLeg
  {
    OFFSET 0.05984250 -0.07665980 -0.04788790
    CHANNELS 3 Zrotation Xrotation Yrotation
    JOINT RightLeg
    {
      OFFSET 0.16000000 0.00000000 0.00000000
      CHANNELS 3 Zrotation Xrotation Yrotation
      JOINT RightFoot
      {
        OFFSET 0.18000000 0.00000000 0.00000000
        CHANNELS 3 Zrotation Xrotation Yrotation
        End Site
        {
          OFFSET 0.00000000 -0.10800000 0.00000000
        }
      }
    }
  }
  JOINT Tail
  {
    OFFSET 0.06836960 -0.00722574 0.00000000
    CHANNELS 3 Zrotation Xrotation Yrotation
    JOINT Tail1
    {
      OFFSET 0.12000000 0.00000000 0.00000000
      CHANNELS 3 Zrotation Xrotation Yrotation
      End Site
      {
        OFFSET 0.12000000 0.00000000 0.00000000
      }
    }
  }
}
MOTION
Frames:	19
Frame Time:	0.0166667
0.0000000 0.4542400 0.0000000 -1.02108 6.01595 0.10703 -153.764 6.92906 4.56086 -38.4441 5.41813 0.349584 -25.4408 21.5032 -16.0442 -139.62 74.2039 122.486 -106.953 -28.5828 -146.188 124.977 -52.5883 -132.639 -64.9551 21.687 -3.23703 -13.0986 -1.6002 -1.03646 73.4399 -32.0854 43.2033 56.6342 -18.555 -37.0692 -97.2089 3.55296 -11.9185 11.1543 1.61808 -10.595 -120.156 -0.666122 -15.4117 76.1813 35.4272 7.7149 39.9667 -6.08044 -10.046 -140.542 -3.62352 3.05355 93.2836 -2.69073 -3.6542 34.1469 -1.22815 -2.80718 -19.3976 40.0301 -10.9076 9.57175 -42.9763 7.59608 
-0.0110636 0.4556270 -0.0042292 -1.96271 5.60093 -0.28105 -154.054 7.13909 5.43484 -36.7631 6.49787 -1.75321 -25.5658 20.9139 -16.2461 -138.191 74.3577 121.115 -106.582 -27.9795 -146.604 126.352 -52.3233 -131.787 -62.4003 20.6012 -3.32007 -12.9093 -1.58194 -0.768464 73.4307 -32.4934 44.0669 54.1571 -20.8016 -38.3944 -92.8886 -2.82871 -9.22222 5.17654 1.6847 -4.46242 -117.379 -0.759642 -15.3866 75.8357 35.8296 7.39796 40.9742 -6.0416 -9.92408 -141.768 -5.33552 2.41908 89.316 -2.94451 -3.12288 37.4275 -1.09185 -2.77408 -16.1312 35.609 -11.5782 9.65982 -37.8089 6.76726 
-0.0265347 0.4568900 -0.0103589 -2.80981 4.93680 -1.11946 -154.976 6.96274 6.12444 -34.3641 7.51081 -4.48313 -25.9552 20.4037 -15.7707 -137.447 74.8551 119.89 -106.113 -27.2904 -146.939 128.564 -52.1771 -130.877 -58.781 18.9325 -3.16084 -12.4063 -1.43499 -0.928545 73.3908 -33.0439 45.1221 51.2835 -23.3285 -41.693 -88.1923 -6.43674 -5.54183 1.78947 0.722054 2.88891 -114.047 -0.981409 -15.1347 75.4085 35.5439 6.92015 42.2106 -5.90079 -9.67001 -143.403 -7.04087 1.80558 83.5108 -4.40491 -2.44602 43.0025 -0.647163 -2.51928 -12.0747 29.9307 -13.2943 9.69486 -30.9801 5.50756 
-0.0414006 0.4578000 -0.0164418 -3.21600 4.13704 -2.08552 -156.487 6.30017 6.20709 -31.873 7.85259 -6.6723 -26.668 20.1234 -14.7836 -137.907 74.9882 120.135 -105.78 -26.7656 -147.294 130.815 -51.9683 -130.421 -55.1021 17.1377 -2.81651 -11.2445 -1.22706 -1.38767 73.3611 -33.4777 45.9343 49.5569 -21.8859 -44.1616 -83.9219 -11.8039 -4.20332 -1.01123 1.35356 -0.499311 -111.139 -1.52973 -14.7924 74.3505 35.6065 6.7088 43.9732 -5.79605 -9.40609 -144.532 -7.60307 1.59086 77.4601 -6.44323 -2.07363 49.0238 -0.0342406 -2.14766 -8.71231 25.2811 -16.0056 9.54472 -25.0539 4.16047 
-0.0555185 0.4589310 -0.0224241 -3.49852 3.29716 -2.97979 -157.934 5.53205 5.93877 -29.7298 7.90911 -8.41727 -27.4432 19.9921 -13.8438 -138.61 74.5257 120.804 -105.387 -26.1578 -147.693 133.79 -51.6738 -129.689 -51.0777 15.5658 -2.57022 -9.48569 -1.13964 -1.40236 73.4206 -33.8621 46.9004 47.2932 -21.3222 -44.9888 -77.3402 -17.7223 -1.77587 -2.61529 2.39935 -5.9843 -108.606 -2.13603 -14.3291 73.3211 35.2087 6.54428 45.6354 -5.71761 -9.20053 -144.658 -7.11432 1.95292 71.8063 -8.26734 -2.2735 53.8169 0.587628 -1.77 -5.81082 21.6628 -19.8198 9.29653 -20.1457 2.93819 
-0.0687759 0.4605050 -0.0286603 -3.89594 2.37810 -3.69145 -158.826 4.66106 5.7946 -28.1573 7.81143 -10.2504 -28.3787 19.9616 -12.5743 -139.265 73.9058 120.817 -104.944 -25.5936 -147.791 137.491 -51.7731 -128.722 -47.3383 14.3523 -2.50449 -6.93194 -1.1843 -0.638262 73.5354 -34.1059 47.7403 43.9744 -24.9974 -45.5066 -70.298 -17.3668 2.46473 -0.39105 1.80573 -5.37328 -106.009 -3.00796 -13.7059 71.8334 34.1319 6.41944 47.5673 -5.53126 -8.83909 -143.085 -6.28466 2.17046 66.7754 -9.21642 -2.42492 57.6175 1.13995 -1.50828 -3.11854 18.8161 -24.627 9.01227 -16.0169 1.89607 
-0.0816332 0.4617180 -0.0354711 -4.47958 1.41998 -4.25660 -159.294 3.65278 5.57706 -26.9756 7.51031 -11.969 -29.4136 19.521 -10.8514 -139.51 73.1151 120.647 -104.703 -25.324 -147.727 140.906 -51.8497 -127.7 -43.6186 13.5183 -2.50012 -4.98706 -1.22073 0.160964 73.8163 -33.9029 48.2011 38.4519 -29.1794 -45.7954 -61.5906 -19.6942 5.02038 -2.9226 1.91682 -4.74583 -103.355 -4.31499 -13.5836 69.9077 33.5234 6.86845 50.6596 -5.3853 -8.46399 -139.952 -5.4356 1.6422 63.044 -6.95478 -1.90356 59.339 1.07998 -1.70175 -0.591692 16.5014 -30.1507 8.75901 -12.5397 0.964028 
-0.0941717 0.4611460 -0.0423806 -5.06783 0.23014 -4.69010 -159.827 2.56093 5.3397 -25.8771 6.98969 -13.4292 -30.3835 19.474 -9.47203 -140.101 72.3648 121.144 -104.618 -25.2845 -147.526 141.852 -51.6143 -127.485 -41.2123 12.5333 -2.5882 -3.46555 -1.11559 0.527552 74.0514 -33.6081 48.344 32.0461 -32.9061 -46.557 -52.4079 -20.9536 6.03758 -5.95102 1.89157 -2.8279 -101.299 -5.38542 -12.8652 69.5971 33.1451 7.04066 52.6453 -5.37336 -8.34163 -137.017 -4.62494 1.49956 63.722 -2.68477 -1.71669 54.6259 0.367512 -2.0937 1.48418 14.981 -36.0327 8.70048 -9.7754 0.213026 
-0.1077002 0.4584700 -0.0491439 -5.37824 -1.23675 -4.95203 -160.695 1.59093 5.65797 -24.6867 6.557 -15.2396 -31.2582 20.3856 -8.87504 -141.396 72.1991 122.417 -104.67 -25.4615 -147.164 140.978 -51.4223 -127.723 -39.8432 12.113 -2.61631 -3.39747 -1.00929 0.488007 74.2779 -33.1395 48.1111 30.2974 -37.2675 -46.5528 -50.7204 -20.0043 5.15813 -7.11772 1.05333 1.54056 -99.918 -6.058 -11.1134 70.8452 32.0367 6.61106 53.4781 -5.42398 -8.39033 -136.047 -4.52771 1.84932 68.018 -0.330749 -1.89887 48.2347 -0.201096 -2.31416 2.82955 14.4776 -41.9512 8.84735 -7.82043 -0.518724 
-0.1224708 0.4552470 -0.0555309 -5.14359 -2.64005 -5.25173 -161.689 0.866951 6.03797 -23.896 6.37973 -16.993 -31.7214 21.6154 -9.19426 -142.703 72.2075 124.01 -104.968 -25.9875 -146.66 137.889 -51.4828 -129.031 -40.8657 10.7545 -2.12016 -2.10624 -1.12318 2.74184 74.4318 -32.5032 47.2839 34.0292 -39.6352 -45.9691 -53.4772 -20.1771 5.59626 -7.8459 0.489926 4.16666 -99.5935 -6.71549 -8.94759 72.9409 28.6727 5.62929 54.242 -5.09433 -8.03326 -136.383 -5.17324 2.57084 71.7168 -0.753875 -2.08684 45.5992 -0.281485 -2.24194 3.20094 15.022 -47.5423 9.3441 -6.74996 -1.41815 
-0.1370958 0.4535920 -0.0606921 -4.47681 -3.49339 -5.86728 -161.899 0.449515 6.14698 -24.3443 6.67622 -18.5371 -31.6316 22.6886 -10.061 -143.822 72.22 125.58 -105.558 -26.9391 -145.986 130.538 -50.8362 -131.866 -47.6333 0.785377 -1.64407 9.02828 0.345181 5.23107 74.3977 -32.0238 46.1493 37.8198 -40.4682 -46.4031 -55.2455 -20.2452 7.13787 -6.67596 0.0946149 5.40011 -100.612 -7.33478 -6.79972 75.779 24.5085 4.30338 55.4335 -4.42202 -7.24695 -136.805 -5.58624 3.56479 74.5236 -2.29633 -2.47894 44.3887 -0.0912553 -1.94225 2.78523 16.5423 -52.2398 10.3409 -6.61271 -2.47112 
-0.1523552 0.4534460 -0.0642501 -3.33919 -3.38583 -6.77173 -161.33 0.479124 6.17528 -25.9492 7.72553 -20.2027 -31.2987 23.0587 -10.5435 -144.31 72.5733 125.911 -106.291 -28.2013 -144.998 123.897 -50.0829 -134.634 -55.9289 -14.7338 -0.425978 23.8755 2.57494 1.22767 74.438 -31.5457 45.2328 41.0731 -41.7171 -47.0082 -57.0283 -22.8386 8.10891 -7.38731 -0.134211 6.25914 -103.239 -7.92007 -5.80674 79.6293 19.1349 3.15468 55.4937 -3.67459 -6.40963 -136.73 -5.33816 3.78843 76.1038 -4.02094 -2.77111 43.3272 0.206377 -1.55643 1.72885 18.5447 -55.906 11.355 -7.12558 -3.60654 
-0.1687598 0.4537070 -0.0665660 -1.77023 -2.40134 -7.93545 -160.487 0.850169 6.04937 -28.1645 9.39707 -21.9545 -30.8009 21.8695 -10.1445 -144.225 73.0181 126.255 -106.895 -29.4075 -143.819 121.763 -50.4998 -136.484 -62.5033 -29.8203 1.74919 36.2096 2.5641 -7.66292 74.684 -30.8923 44.5791 45.4955 -43.1744 -47.0319 -59.624 -25.1132 9.11188 -7.70926 -0.134007 5.90342 -106.895 -8.42767 -6.31545 83.8696 13.6739 2.43806 52.7063 -3.0165 -5.6758 -136.226 -4.47174 3.36629 76.3529 -5.77173 -3.07873 42.8707 0.601013 -1.08976 0.15715 20.9356 -58.691 12.1093 -7.97867 -4.59244 
-0.1857350 0.4531700 -0.0685130 0.11625 -1.24364 -9.17208 -159.951 1.19242 5.71073 -30.3856 11.0895 -23.468 -30.1681 19.7483 -9.29155 -143.213 72.9714 126.518 -107.385 -30.5427 -142.547 121.825 -51.0719 -137.037 -67.0099 -43.9036 4.18875 43.7118 0.162853 -19.3302 74.9787 -30.2235 44.0288 49.6864 -45.8265 -45.7698 -63.2392 -25.5247 9.15247 -6.80545 -0.26906 6.39331 -111.44 -8.66361 -7.52113 88.8509 11.3624 1.96583 46.0354 -2.6547 -5.23102 -135.987 -3.63154 2.82915 76.5671 -7.6039 -3.39933 42.6024 1.04053 -0.584824 -1.57472 23.8876 -61.2234 12.2299 -8.80436 -5.59274 
-0.2026471 0.4518230 -0.0704729 1.87568 -0.30632 -10.3199 -159.726 1.24873 5.31348 -32.1749 12.3587 -24.7223 -29.8158 17.7527 -8.18704 -141.314 72.3877 126.101 -108 -31.8715 -141.298 120.569 -50.2805 -137.943 -69.4806 -57.8718 8.86972 45.159 -3.3495 -33.3779 75.1526 -29.7549 43.5136 52.8886 -49.097 -43.9362 -66.9041 -25.656 8.21427 -6.2416 -0.429919 7.54514 -116.691 -8.67938 -8.87249 94.3665 10.9316 1.65359 38.6654 -2.49435 -4.97575 -135.703 -3.20878 2.01481 77.0981 -8.98942 -3.42058 42.0849 1.31229 -0.231581 -3.10183 27.3001 -63.529 11.286 -9.25961 -6.8256 
-0.2188292 0.4509380 -0.0723009 3.05846 0.58909 -11.5498 -159.298 0.941632 4.12398 -33.6344 12.9315 -25.0395 -29.7195 16.0588 -6.81528 -139.441 71.4112 125.738 -108.725 -33.2412 -140.378 118.047 -47.5644 -138.962 -66.1319 -69.1072 19.2399 41.5307 -5.14206 -45.4068 75.2735 -29.3481 42.9455 55.7098 -52.007 -42.5723 -69.974 -25.4064 7.47512 -5.63066 -0.551944 8.5652 -121.725 -8.40729 -10.3449 98.5793 10.4395 1.55457 33.3898 -2.35357 -4.73604 -134.708 -3.0411 0.908051 77.5594 -10.0093 -3.1711 41.4409 1.43187 -0.0144367 -4.17153 30.963 -65.4097 9.87926 -9.41881 -7.96344 
-0.2340046 0.4509190 -0.0741147 3.53017 1.36819 -12.9293 -158.616 0.177798 1.78485 -34.8567 12.609 -24.037 -29.7604 14.7875 -5.6844 -137.722 69.689 126.494 -109.39 -34.4462 -139.702 116.164 -43.911 -139.014 -53.2004 -75.7196 38.1126 36.3403 -4.50954 -52.7703 75.4114 -28.8883 42.289 58.6899 -53.6908 -41.9514 -71.6063 -25.8212 7.44684 -6.25292 -0.625256 8.92952 -126.108 -7.9486 -12.0753 100.591 11.4328 1.79756 30.0381 -2.36458 -4.69976 -133.024 -2.98037 0.0550066 77.7922 -10.9975 -2.95647 41.389 1.5804 0.186317 -4.69736 34.8194 -66.5195 8.39629 -9.54665 -8.64233 
-0.2478555 0.4515930 -0.0758702 3.15109 1.96077 -14.2978 -157.55 -1.07811 -1.18374 -35.9249 11.4584 -22.1674 -29.8788 14.1588 -4.70435 -136.776 67.6319 128.856 -109.952 -35.5226 -139.045 115.009 -39.9885 -138.259 -45.4075 -76.3172 50.7323 33.3947 -3.07259 -52.5187 75.5696 -28.3595 41.5047 61.3549 -54.7948 -41.7099 -72.3173 -26.0221 7.8242 -7.22726 -0.722187 9.01716 -129.742 -7.12997 -13.1178 101.132 11.6677 1.99151 28.8173 -2.30764 -4.55969 -130.777 -3.05631 -0.328372 78.1899 -11.6181 -2.79239 41.6033 1.69056 0.306134 -4.78828 38.8708 -66.6747 6.87016 -9.95802 -8.81171 
-0.2601754 0.4530240 -0.0775039 2.00514 2.37264 -15.5139 -156.005 -2.74937 -4.27077 -37.0388 9.73328 -19.8971 -29.9256 14.253 -3.70846 -136.61 65.001 131.738 -110.4 -36.4681 -138.377 114.782 -36.2069 -137.096 -52.7668 -73.9665 47.4777 32.5819 -1.92271 -47.4311 75.8037 -27.7081 40.644 62.6156 -55.7166 -41.7345 -72.2702 -25.8807 8.14868 -7.88752 -0.755056 8.67919 -132.827 -6.10774 -13.6678 100.506 11.2326 2.27418 29.3009 -2.19714 -4.37556 -128.06 -3.3906 -0.282774 78.7644 -12.4048 -2.63418 41.7873 1.85559 0.48118 -4.63465 43.3874 -65.9197 5.52349 -11.3048 -8.26033 
